<?xml version="1.0" encoding="iso-8859-1"?>
<!-- Generator: Adobe Illustrator 18.0.0, SVG Export Plug-In . SVG Version: 6.00 Build 0)  -->
<!DOCTYPE svg PUBLIC "-//W3C//DTD SVG 1.1//EN" "http://www.w3.org/Graphics/SVG/1.1/DTD/svg11.dtd">
<svg version="1.1" id="Capa_1" xmlns="http://www.w3.org/2000/svg" xmlns:xlink="http://www.w3.org/1999/xlink" x="0px" y="0px"
	 viewBox="0 0 124.311 124.311" style="enable-background:new 0 0 124.311 124.311;" xml:space="preserve">
<g>
	<path style="fill:#FFC847;" d="M62.155,9.412c0.663,0,1.2-0.537,1.2-1.2V1.201c0-0.663-0.538-1.2-1.2-1.2
		c-0.663,0-1.2,0.537-1.2,1.2v7.011C60.955,8.874,61.493,9.412,62.155,9.412z"/>
	<path style="fill:#FFC847;" d="M62.155,28.065c0.663,0,1.2-0.537,1.2-1.2V13.676c0-0.663-0.538-1.2-1.2-1.2
		c-0.663,0-1.2,0.537-1.2,1.2v13.188C60.955,27.528,61.493,28.065,62.155,28.065z"/>
	<path style="fill:#FFC847;" d="M62.155,114.899c-0.663,0-1.2,0.537-1.2,1.2v7.011c0,0.663,0.538,1.2,1.2,1.2
		c0.663,0,1.2-0.537,1.2-1.2v-7.011C63.355,115.436,62.818,114.899,62.155,114.899z"/>
	<path style="fill:#FFC847;" d="M62.155,96.246c-0.663,0-1.2,0.537-1.2,1.2v13.188c0,0.663,0.538,1.2,1.2,1.2
		c0.663,0,1.2-0.537,1.2-1.2V97.446C63.355,96.783,62.818,96.246,62.155,96.246z"/>
	<path style="fill:#FFC847;" d="M40.403,12.777c0.191,0.462,0.638,0.741,1.109,0.741c0.153,0,0.309-0.029,0.459-0.092
		c0.612-0.253,0.903-0.955,0.65-1.567l-2.683-6.478c-0.254-0.612-0.957-0.904-1.568-0.649c-0.612,0.253-0.903,0.955-0.65,1.567
		L40.403,12.777z"/>
	<path style="fill:#FFC847;" d="M42.495,17.826l5.047,12.185c0.191,0.462,0.639,0.741,1.109,0.741c0.153,0,0.309-0.029,0.458-0.092
		c0.612-0.253,0.903-0.955,0.65-1.567l-5.047-12.185c-0.254-0.612-0.957-0.904-1.568-0.649
		C42.532,16.511,42.241,17.213,42.495,17.826z"/>
	<path style="fill:#FFC847;" d="M83.908,111.534c-0.254-0.612-0.957-0.905-1.568-0.649c-0.612,0.253-0.903,0.955-0.65,1.567
		l2.683,6.478c0.192,0.462,0.639,0.741,1.109,0.741c0.153,0,0.309-0.029,0.458-0.092c0.612-0.253,0.903-0.955,0.65-1.567
		L83.908,111.534z"/>
	<path style="fill:#FFC847;" d="M81.815,106.484L76.769,94.3c-0.255-0.612-0.956-0.905-1.568-0.649
		c-0.612,0.253-0.903,0.955-0.649,1.567l5.046,12.184c0.192,0.462,0.639,0.741,1.109,0.741c0.153,0,0.309-0.029,0.459-0.092
		C81.778,107.798,82.069,107.096,81.815,106.484z"/>
	<path style="fill:#FFC847;" d="M23.163,24.86c0.234,0.234,0.542,0.352,0.849,0.352c0.307,0,0.614-0.117,0.849-0.352
		c0.468-0.469,0.469-1.229,0-1.697l-4.958-4.958c-0.469-0.469-1.229-0.469-1.697,0c-0.468,0.469-0.469,1.228,0,1.697L23.163,24.86z"
		/>
	<path style="fill:#FFC847;" d="M36.353,38.049c0.234,0.234,0.542,0.352,0.849,0.352c0.307,0,0.614-0.117,0.849-0.352
		c0.469-0.469,0.469-1.229,0-1.697l-9.325-9.325c-0.469-0.469-1.229-0.469-1.697,0c-0.469,0.469-0.469,1.228,0,1.697L36.353,38.049z
		"/>
	<path style="fill:#FFC847;" d="M101.148,99.451c-0.469-0.469-1.229-0.469-1.697,0c-0.469,0.469-0.468,1.229,0,1.697l4.957,4.957
		c0.234,0.234,0.542,0.352,0.849,0.352c0.307,0,0.614-0.117,0.849-0.352c0.469-0.469,0.468-1.229,0-1.697L101.148,99.451z"/>
	<path style="fill:#FFC847;" d="M87.958,86.26c-0.469-0.469-1.229-0.469-1.697,0c-0.469,0.469-0.469,1.229,0,1.697l9.325,9.325
		c0.234,0.234,0.542,0.352,0.849,0.352s0.614-0.117,0.849-0.352c0.469-0.469,0.469-1.229,0-1.697L87.958,86.26z"/>
	<path style="fill:#FFC847;" d="M5.381,39.937l6.478,2.683c0.15,0.063,0.306,0.092,0.458,0.092c0.471,0,0.918-0.279,1.109-0.741
		c0.253-0.612-0.038-1.314-0.65-1.567L6.299,37.72c-0.612-0.256-1.314,0.037-1.568,0.649C4.478,38.982,4.769,39.684,5.381,39.937z"
		/>
	<path style="fill:#FFC847;" d="M16.908,44.711l12.184,5.047c0.15,0.063,0.306,0.092,0.458,0.092c0.471,0,0.918-0.279,1.109-0.741
		c0.253-0.612-0.038-1.314-0.65-1.567l-12.184-5.047c-0.613-0.255-1.315,0.037-1.568,0.649
		C16.005,43.756,16.296,44.458,16.908,44.711z"/>
	<path style="fill:#FFC847;" d="M118.93,84.373l-6.478-2.684c-0.615-0.255-1.315,0.037-1.568,0.65
		c-0.254,0.612,0.037,1.313,0.649,1.567l6.478,2.684c0.15,0.063,0.306,0.092,0.459,0.092c0.471,0,0.917-0.279,1.109-0.741
		C119.832,85.329,119.542,84.627,118.93,84.373z"/>
	<path style="fill:#FFC847;" d="M107.402,79.598l-12.184-5.046c-0.613-0.255-1.315,0.037-1.568,0.649
		c-0.253,0.612,0.038,1.314,0.65,1.567l12.184,5.046c0.15,0.063,0.306,0.092,0.458,0.092c0.471,0,0.918-0.279,1.109-0.741
		C108.306,80.553,108.015,79.851,107.402,79.598z"/>
	<path style="fill:#FFC847;" d="M9.412,62.155c0-0.663-0.538-1.2-1.2-1.2H1.2c-0.663,0-1.2,0.537-1.2,1.2c0,0.663,0.538,1.2,1.2,1.2
		h7.011C8.874,63.355,9.412,62.818,9.412,62.155z"/>
	<path style="fill:#FFC847;" d="M28.065,62.155c0-0.663-0.538-1.2-1.2-1.2H13.677c-0.663,0-1.2,0.537-1.2,1.2
		c0,0.663,0.538,1.2,1.2,1.2h13.188C27.527,63.355,28.065,62.818,28.065,62.155z"/>
	<path style="fill:#FFC847;" d="M123.11,60.955h-7.011c-0.663,0-1.2,0.537-1.2,1.2c0,0.663,0.538,1.2,1.2,1.2h7.011
		c0.663,0,1.2-0.537,1.2-1.2C124.311,61.492,123.773,60.955,123.11,60.955z"/>
	<path style="fill:#FFC847;" d="M111.834,62.155c0-0.663-0.538-1.2-1.2-1.2H97.446c-0.663,0-1.2,0.537-1.2,1.2
		c0,0.663,0.538,1.2,1.2,1.2h13.188C111.296,63.355,111.834,62.818,111.834,62.155z"/>
	<path style="fill:#FFC847;" d="M11.858,81.69l-6.477,2.684c-0.612,0.254-0.903,0.955-0.649,1.567
		c0.191,0.463,0.638,0.741,1.109,0.741c0.153,0,0.309-0.029,0.459-0.092l6.478-2.684c0.612-0.254,0.903-0.955,0.649-1.567
		C13.172,81.725,12.472,81.434,11.858,81.69z"/>
	<path style="fill:#FFC847;" d="M30.66,75.202c-0.253-0.611-0.955-0.903-1.568-0.649l-12.184,5.046
		c-0.612,0.253-0.903,0.955-0.65,1.567c0.191,0.462,0.638,0.741,1.109,0.741c0.153,0,0.309-0.029,0.458-0.092l12.184-5.046
		C30.623,76.516,30.914,75.814,30.66,75.202z"/>
	<path style="fill:#FFC847;" d="M111.993,42.711c0.153,0,0.309-0.029,0.459-0.092l6.477-2.683c0.612-0.253,0.903-0.955,0.65-1.567
		c-0.253-0.611-0.956-0.905-1.568-0.649l-6.477,2.683c-0.612,0.253-0.903,0.955-0.65,1.567
		C111.075,42.432,111.522,42.711,111.993,42.711z"/>
	<path style="fill:#FFC847;" d="M93.65,49.109c0.192,0.462,0.639,0.741,1.109,0.741c0.153,0,0.309-0.029,0.459-0.092l12.184-5.047
		c0.612-0.253,0.903-0.955,0.65-1.567c-0.254-0.612-0.957-0.905-1.568-0.649L94.3,47.542C93.688,47.794,93.397,48.497,93.65,49.109z
		"/>
	<path style="fill:#FFC847;" d="M23.163,99.451l-4.958,4.957c-0.468,0.469-0.469,1.229,0,1.697c0.234,0.234,0.542,0.352,0.849,0.352
		c0.307,0,0.614-0.117,0.849-0.352l4.958-4.957c0.468-0.469,0.469-1.229,0-1.697C24.391,98.982,23.631,98.982,23.163,99.451z"/>
	<path style="fill:#FFC847;" d="M38.05,86.26c-0.469-0.469-1.229-0.469-1.697,0l-9.325,9.325c-0.469,0.469-0.469,1.229,0,1.697
		c0.234,0.234,0.542,0.352,0.849,0.352s0.614-0.117,0.849-0.352l9.325-9.325C38.519,87.489,38.519,86.729,38.05,86.26z"/>
	<path style="fill:#FFC847;" d="M100.299,25.211c0.307,0,0.614-0.117,0.849-0.352l4.958-4.958c0.469-0.469,0.468-1.229,0-1.697
		c-0.469-0.469-1.229-0.469-1.697,0l-4.957,4.958c-0.469,0.469-0.468,1.229,0,1.697C99.685,25.094,99.992,25.211,100.299,25.211z"/>
	<path style="fill:#FFC847;" d="M86.261,38.049c0.234,0.234,0.542,0.352,0.849,0.352s0.614-0.117,0.849-0.352l9.325-9.325
		c0.469-0.469,0.469-1.229,0-1.697c-0.469-0.469-1.228-0.469-1.697,0l-9.325,9.325C85.792,36.821,85.792,37.581,86.261,38.049z"/>
	<path style="fill:#FFC847;" d="M41.971,110.884c-0.613-0.255-1.315,0.037-1.568,0.649l-2.683,6.478
		c-0.253,0.612,0.038,1.314,0.65,1.567c0.15,0.063,0.306,0.092,0.458,0.092c0.471,0,0.918-0.279,1.109-0.741l2.683-6.478
		C42.874,111.839,42.583,111.137,41.971,110.884z"/>
	<path style="fill:#FFC847;" d="M49.11,93.651c-0.614-0.255-1.314,0.037-1.568,0.649l-5.046,12.184
		c-0.254,0.612,0.037,1.314,0.649,1.567c0.15,0.063,0.306,0.092,0.459,0.092c0.471,0,0.917-0.279,1.109-0.741l5.046-12.184
		C50.013,94.606,49.722,93.904,49.11,93.651z"/>
	<path style="fill:#FFC847;" d="M82.34,13.426c0.15,0.063,0.306,0.092,0.458,0.092c0.471,0,0.918-0.279,1.109-0.741l2.683-6.478
		c0.253-0.612-0.038-1.314-0.65-1.567c-0.613-0.255-1.314,0.037-1.568,0.649l-2.683,6.478C81.437,12.471,81.728,13.173,82.34,13.426
		z"/>
	<path style="fill:#FFC847;" d="M75.201,30.66c0.15,0.063,0.306,0.092,0.459,0.092c0.471,0,0.918-0.279,1.109-0.741l5.047-12.185
		c0.253-0.612-0.038-1.315-0.65-1.567c-0.613-0.255-1.314,0.037-1.568,0.649l-5.047,12.185
		C74.298,29.705,74.589,30.407,75.201,30.66z"/>
	<polygon style="fill:#FFC847;" points="71.696,57.782 80.759,43.226 66.203,52.289 62.155,34.885 58.108,52.29 43.552,43.226 
		52.615,57.782 35.211,61.83 52.615,65.877 43.552,80.433 58.108,71.37 62.155,88.774 66.203,71.37 80.759,80.433 71.696,65.877 
		89.1,61.83 	"/>
</g>
<g>
</g>
<g>
</g>
<g>
</g>
<g>
</g>
<g>
</g>
<g>
</g>
<g>
</g>
<g>
</g>
<g>
</g>
<g>
</g>
<g>
</g>
<g>
</g>
<g>
</g>
<g>
</g>
<g>
</g>
</svg>
